<svg width="55" height="53" viewBox="0 0 55 53" fill="none" xmlns="http://www.w3.org/2000/svg">
<path d="M10.9393 52.0607C11.5251 52.6464 12.4749 52.6464 13.0607 52.0607L22.6066 42.5147C23.1924 41.9289 23.1924 40.9792 22.6066 40.3934C22.0208 39.8076 21.0711 39.8076 20.4853 40.3934L12 48.8787L3.51472 40.3934C2.92893 39.8076 1.97919 39.8076 1.3934 40.3934C0.807614 40.9792 0.807614 41.9289 1.3934 42.5147L10.9393 52.0607ZM10.5 1L10.5 51L13.5 51L13.5 1L10.5 1Z" fill="white"/>
<path d="M29.7071 0.292884C29.3166 -0.0976398 28.6834 -0.0976398 28.2929 0.292885L21.9289 6.65685C21.5384 7.04737 21.5384 7.68054 21.9289 8.07106C22.3195 8.46158 22.9526 8.46158 23.3431 8.07106L29 2.4142L34.6569 8.07106C35.0474 8.46158 35.6805 8.46158 36.0711 8.07106C36.4616 7.68053 36.4616 7.04737 36.0711 6.65685L29.7071 0.292884ZM30 25.5098L30 0.999991L28 0.999991L28 25.5098L30 25.5098Z" fill="white"/>
<path d="M47.7071 26.2169C47.3166 26.6074 46.6834 26.6074 46.2929 26.2169L39.9289 19.853C39.5384 19.4624 39.5384 18.8293 39.9289 18.4387C40.3195 18.0482 40.9526 18.0482 41.3431 18.4387L47 24.0956L52.6569 18.4387C53.0474 18.0482 53.6805 18.0482 54.0711 18.4387C54.4616 18.8293 54.4616 19.4624 54.0711 19.853L47.7071 26.2169ZM48 1L48 25.5098L46 25.5098L46 1L48 1Z" fill="white"/>
</svg>
