<svg width="24" height="52" viewBox="0 0 24 52" fill="none" xmlns="http://www.w3.org/2000/svg">
<path d="M10.9394 51.0607C11.5251 51.6464 12.4749 51.6464 13.0607 51.0607L22.6066 41.5147C23.1924 40.9289 23.1924 39.9792 22.6066 39.3934C22.0208 38.8076 21.0711 38.8076 20.4853 39.3934L12 47.8787L3.51473 39.3934C2.92895 38.8076 1.9792 38.8076 1.39341 39.3934C0.807628 39.9792 0.807628 40.9289 1.39341 41.5147L10.9394 51.0607ZM7 36.2832L6.17051 35.0334L4.45377 36.1728L6.0655 37.4565L7 36.2832ZM15 30.9735L15.8295 32.2232L17.6381 31.0228L15.8757 29.7556L15 30.9735ZM12 40.2655L13.5 40.2655L13.5 39.5426L12.9345 39.0922L12 40.2655ZM7 25.2212L6.17051 23.9715L4.3619 25.1719L6.12433 26.4391L7 25.2212ZM15 19.9115L15.8295 21.1613L17.6381 19.9609L15.8757 18.6936L15 19.9115ZM7 14.1593L5.95371 13.0845L4.67155 14.3326L6.12433 15.3772L7 14.1593ZM12 9.29204L13.0463 10.3669L13.5 9.92521L13.5 9.29204L12 9.29204ZM14.1705 29.7237L6.17051 35.0334L7.8295 37.533L15.8295 32.2232L14.1705 29.7237ZM6.0655 37.4565L11.0655 41.4388L12.9345 39.0922L7.93451 35.1099L6.0655 37.4565ZM10.5 40.2655L10.5 50L13.5 50L13.5 40.2655L10.5 40.2655ZM6.12433 26.4391L14.1243 32.1913L15.8757 29.7556L7.87568 24.0034L6.12433 26.4391ZM14.1705 18.6617L6.17051 23.9715L7.8295 26.471L15.8295 21.1613L14.1705 18.6617ZM6.12433 15.3772L14.1243 21.1294L15.8757 18.6936L7.87568 12.9414L6.12433 15.3772ZM10.5 -3.65517e-08L10.5 9.29204L13.5 9.29204L13.5 -1.37357e-08L10.5 -3.65517e-08ZM10.9537 8.2172L5.95371 13.0845L8.0463 15.2341L13.0463 10.3669L10.9537 8.2172Z" fill="white"/>
</svg>
