<svg width="31" height="52" viewBox="0 0 31 52" fill="none" xmlns="http://www.w3.org/2000/svg">
<path d="M10.9393 51.0607C11.5251 51.6464 12.4749 51.6464 13.0607 51.0607L22.6066 41.5147C23.1924 40.9289 23.1924 39.9792 22.6066 39.3934C22.0208 38.8076 21.0711 38.8076 20.4853 39.3934L12 47.8787L3.51472 39.3934C2.92893 38.8076 1.97919 38.8076 1.3934 39.3934C0.807614 39.9792 0.807614 40.9289 1.3934 41.5147L10.9393 51.0607ZM10.5 4.46428L10.5 50L13.5 50L13.5 4.46428L10.5 4.46428Z" fill="white"/>
<path d="M22.2929 36.4214C22.6834 36.8119 23.3166 36.8119 23.7071 36.4214L30.0711 30.0574C30.4616 29.6669 30.4616 29.0337 30.0711 28.6432C29.6805 28.2527 29.0474 28.2527 28.6569 28.6432L23 34.3001L17.3431 28.6432C16.9526 28.2527 16.3195 28.2527 15.9289 28.6432C15.5384 29.0337 15.5384 29.6669 15.9289 30.0574L22.2929 36.4214ZM22 4.69897e-08L22 35.7143L24 35.7143L24 -4.69897e-08L22 4.69897e-08Z" fill="white"/>
</svg>
